<svg xmlns="http://www.w3.org/2000/svg" width="32" height="32" viewBox="0 0 520 520" fill="white"
  stroke="white" stroke-width="1" stroke-linecap="round" stroke-linejoin="round">
  <path d="M 252 380 l -100 -50 l5 -80 l75 -30 l25 25 l-25 35 l -35 -5 l 5 10 v 15 l -5 10 l 40 -2 l 40 30 Z" />
  <path d="M 162 242 v -70 h45 v 53 Z" />
  <path d="M 212 222 v -70 h45 v88 l -22 -25 Z" />
  <path d="M 256 253 v 27 h -20 z" />
  <path d="M 262 290 v-125 h45 v 110 z" />
  <path d="M 312 275 v-110 h45 v 110 z" />
  <path d="M 282 335 l -40 -30 l 65-25 h 55 l 2 60 l -40 40 z" />
  <path d="M 212 420 v -55 l 42 21 l27 -46 l 43 45 l 30 -30 v 65 z" />
  <path d="M 157 220 h -70 v 90 h 62 l 4 -60 z" />
  <path d="M 362 220 h 70 v 90 h-65 l-2 -30 z" />
  <path d="M 81 220 v -80 h -70 v 250 h 70 z" />
  <path d="M 438 220 v-80 h70 v250 h -70z" />
</svg> 